<svg xmlns="http://www.w3.org/2000/svg" width="44.25" height="50" viewBox="0 0 44.25 50"><defs><style>.cls-1{fill:#a0485e;}</style></defs><title>bueaty</title><g id="レイヤー_2" data-name="レイヤー 2"><g id="レイヤー_1-2" data-name="レイヤー 1"><path class="cls-1" d="M6.6,9.39A1.19,1.19,0,0,0,6.13,9a2.05,2.05,0,0,0-1.28-.08,2.75,2.75,0,0,0,.4-.58A1.49,1.49,0,0,0,5.36,7,1.58,1.58,0,0,0,5,6.47a1,1,0,0,0-.54-.3A2.18,2.18,0,0,0,3,6.5,10.66,10.66,0,0,0,1.12,7.88a.3.3,0,0,0,0,.43.31.31,0,0,0,.43,0c.26-.23.5-.43.74-.61a38.07,38.07,0,0,0,.8,5.12.31.31,0,0,0,.39.2h0a.31.31,0,0,0,.16-.37,18.59,18.59,0,0,1-.47-2.42,7.52,7.52,0,0,1,1.45-.66,1.77,1.77,0,0,1,1.23-.06.76.76,0,0,1,.38.64c.18,1.38-1.43,2.48-3,3.05a.31.31,0,0,0-.19.39.3.3,0,0,0,.39.18c.29-.11.58-.23.85-.36a6.07,6.07,0,0,0,1.53-1,3.27,3.27,0,0,0,.8-1,2.33,2.33,0,0,0,.2-1.29A1.61,1.61,0,0,0,6.6,9.39ZM4,8.86a5.77,5.77,0,0,1-.94.72c-.14-1-.23-2-.27-2.27A4.81,4.81,0,0,1,3.26,7a1.71,1.71,0,0,1,1.07-.28.66.66,0,0,1,.46.48C5,7.8,4.5,8.43,4,8.86Z"/><path class="cls-1" d="M22.1,3.18a.3.3,0,0,0-.39.17,2.58,2.58,0,0,1-.94,1.14c.1-.39.17-.77.22-1.08,0,0,0,0,0,0a1.58,1.58,0,0,0,.23-.55.59.59,0,0,0-.07-.47.34.34,0,0,0-.37-.13c-.21.06-.33.29-.37.68a2.45,2.45,0,0,1,0,.27c-.61.9-1.09,1.06-1.44,1.08a.85.85,0,0,1,0-.45l0-.13v0a2.62,2.62,0,0,1,.47-1,.3.3,0,0,0-.06-.43.3.3,0,0,0-.42.06,3.31,3.31,0,0,0-.58,1.24,1.55,1.55,0,0,0,0,.21,2.25,2.25,0,0,1-1.12,1.49.36.36,0,0,1-.4-.07c-.05,0-.17-.21-.2-.72a7.44,7.44,0,0,1,0-1.3l.15,0c.79-.2,1.23-.35,1.28-.36a.32.32,0,0,0,.18-.39.31.31,0,0,0-.39-.18L17,2.41c.13-.43.32-1.1.51-1.68a1,1,0,0,0,.07-.34A.37.37,0,0,0,17.33,0C17-.1,16.72.28,16.6.54a11,11,0,0,0-.48,2.08c-.21.07-.48.08-.45.43a.23.23,0,0,0,.29.21H16c0,.24,0,.46,0,.66a.31.31,0,0,0-.06.13,3.85,3.85,0,0,1-.34,1.27c-.12.26-.23.33-.25.33s-.13-.08-.22-.34A4,4,0,0,1,14.91,4a.29.29,0,0,0-.31-.29.3.3,0,0,0-.29.31,6.35,6.35,0,0,1-.16,1.54,1.69,1.69,0,0,1-.45,1s0,0-.13,0-.39-.34-.39-2a.32.32,0,0,0-.3-.31.31.31,0,0,0-.3.31,9.68,9.68,0,0,0,.07,1.17.14.14,0,0,0,0,.09c.09.93,0,1.5-.39,1.73l-.08,0a.76.76,0,0,1-.12-.24c0-.09,0-.19-.07-.29a2.2,2.2,0,0,0,0-.27c0-.45,0-.67-.21-.78a.43.43,0,0,0-.22,0,.29.29,0,0,0,.12-.36A.72.72,0,0,0,11,5.12a1.5,1.5,0,0,0-1.17,1,5,5,0,0,0-.25,1.29,3.52,3.52,0,0,0,.07,1A1.91,1.91,0,0,1,9,9.85a.76.76,0,0,1-.71.1.48.48,0,0,1-.2-.2C9.37,8.44,9.3,7.6,9.14,7.22a.86.86,0,0,0-.31-.39.76.76,0,0,0-.43-.14,1,1,0,0,0-.74.41,2.38,2.38,0,0,0-.42,1.47,3.21,3.21,0,0,0,.18,1.25,1.26,1.26,0,0,0,.56.67,1.3,1.3,0,0,0,1.33-.15,2.31,2.31,0,0,0,.78-1,1.18,1.18,0,0,0,.07-.2.8.8,0,0,0,.25.11.83.83,0,0,0,.7-.12l0,0a2.06,2.06,0,0,0,.64-1.07.65.65,0,0,0,.15.1.68.68,0,0,0,.66-.1,1.45,1.45,0,0,0,.59-.88l0-.16,0,0a.69.69,0,0,0,.7.06l.06,0a2,2,0,0,0,.7-1.24.78.78,0,0,0,.61.43c.21,0,.53-.1.8-.62l.12-.27a1,1,0,0,0,.16.22.94.94,0,0,0,.92.23l.09,0a2.21,2.21,0,0,0,1-.82,2.2,2.2,0,0,0,.17-.25.54.54,0,0,0,.39.15A1.84,1.84,0,0,0,20,4.49l.14-.1c-.05.19-.1.38-.17.57l-.4.2-.39.19a1.94,1.94,0,0,0-1.06,1.36.59.59,0,0,0,.62.67.34.34,0,0,0,.14,0c.6-.14,1.09-1,1.29-1.32a4,4,0,0,0,.29-.66,3.71,3.71,0,0,0,1.78-1.8A.31.31,0,0,0,22.1,3.18ZM7.87,9.08a2.75,2.75,0,0,1,0-.51,1.76,1.76,0,0,1,.28-1.09.47.47,0,0,1,.13-.12.27.27,0,0,1,.15-.07.24.24,0,0,1,.16.16C8.7,7.74,8.56,8.3,7.87,9.08Zm3.61-3a.45.45,0,0,0-.17.37,1.43,1.43,0,0,0,0,.4l0,.12c0,.06,0,.11,0,.16a2.67,2.67,0,0,1-.59,1.55.28.28,0,0,1-.23,0,.38.38,0,0,1-.2-.18l-.06-.13a2.68,2.68,0,0,0-.05-.63l0-.07a4.39,4.39,0,0,1,.22-1.29,1.25,1.25,0,0,1,.43-.58.38.38,0,0,1,.18-.06s.07,0,.11.1A.32.32,0,0,0,11.5,6Zm7.29.74h0a.58.58,0,0,1,.14-.35,2,2,0,0,1,.61-.54l.13-.06C19.3,6.41,19,6.73,18.77,6.77Z"/><path class="cls-1" d="M29.26,1.69a.9.9,0,0,0,.09-.87,1.46,1.46,0,0,0-1-.66,2.89,2.89,0,0,0-1.06,0,2.4,2.4,0,0,0-1.05.42,1.83,1.83,0,0,0-.82,1.28,1.43,1.43,0,0,0,.07.68,1.72,1.72,0,0,0,.31.58c.16.19.32.36.48.53a6.6,6.6,0,0,1,.88,1.12.92.92,0,0,1,.07.82.88.88,0,0,1-.62.52,3,3,0,0,1-1.16,0,1.5,1.5,0,0,1-1-.56,1,1,0,0,1-.06-.92.9.9,0,0,1,.68-.5.31.31,0,0,0,.24-.36.32.32,0,0,0-.36-.24,1.51,1.51,0,0,0-1.11.85,1.59,1.59,0,0,0-.13.75,1.68,1.68,0,0,0,.22.72A1.86,1.86,0,0,0,25,6.57l.32.07a3.64,3.64,0,0,0,1.43,0,1.51,1.51,0,0,0,.93-2.23,6.51,6.51,0,0,0-1-1.23l-.46-.51A1.06,1.06,0,0,1,26,1.9,1.31,1.31,0,0,1,26.61,1,2.06,2.06,0,0,1,28.22.75a1,1,0,0,1,.59.34c.09.18-.27.57-.54.87a2.65,2.65,0,0,0-.61.88.31.31,0,0,0,.21.37.3.3,0,0,0,.38-.2,2.32,2.32,0,0,1,.48-.65A4.72,4.72,0,0,0,29.26,1.69Z"/><path class="cls-1" d="M33,5.72a.3.3,0,0,0-.42.08c-.53.77-1,1.12-1.42,1.07a.14.14,0,0,1-.09,0s0-.09.07-.25a1.58,1.58,0,0,1,.13-.26l.2-.19c.31-.32.42-.53.35-.73a.35.35,0,0,0-.15-.17.3.3,0,0,0,.34-.2.73.73,0,0,0-.21-.81,1.48,1.48,0,0,0-1.57,0,4.43,4.43,0,0,0-1,.82,2.7,2.7,0,0,0-.71,1.15.9.9,0,0,0,.14.74.86.86,0,0,0,.61.35h0A2.1,2.1,0,0,0,30.51,7a.84.84,0,0,0,0,.17.68.68,0,0,0,.57.35,1.39,1.39,0,0,0,1-.29,4,4,0,0,0,1-1A.32.32,0,0,0,33,5.72Zm-2.13.1L30.83,6a2.63,2.63,0,0,1-1.45.79.23.23,0,0,1-.21-.11.3.3,0,0,1,0-.26,3.32,3.32,0,0,1,1.44-1.56,1.27,1.27,0,0,1,.7-.16.38.38,0,0,1,.18.06s.05,0,0,.15a.31.31,0,0,0,.14.36h0a.44.44,0,0,0-.38.17,1.77,1.77,0,0,0-.23.32Z"/><path class="cls-1" d="M43.13,2.9a.3.3,0,0,0-.3-.31.29.29,0,0,0-.3.3,3.78,3.78,0,0,1-.08.6,1.27,1.27,0,0,1-.42.77,1.18,1.18,0,0,1-.24.14,1,1,0,0,1,0-.15c0-.12,0-.27,0-.43a5,5,0,0,0,0-.68.93.93,0,0,0-.34-.64.86.86,0,0,0-.82,0,1.6,1.6,0,0,0-.79.8,6,6,0,0,0-.28.65,5.26,5.26,0,0,0-.1-.56.3.3,0,0,0-.59.15,5,5,0,0,1,.13.8.3.3,0,0,0-.33.18,1.14,1.14,0,0,1-.42.55.78.78,0,0,0,0-.14A2,2,0,0,0,38,3.8a.93.93,0,0,0-.76-.57,1,1,0,0,0-.89.59,1.17,1.17,0,0,0-.19.55.26.26,0,0,0-.19.15,2.85,2.85,0,0,0-.32.82.3.3,0,0,0-.3.2,2,2,0,0,1-.51.94,1,1,0,0,1-.58.29h0c-.14,0-.27,0-.35-.07s-.21-.34,0-1.2l.06,0a3.9,3.9,0,0,0,1.45-1.55A5.52,5.52,0,0,0,36,2.28a2.66,2.66,0,0,0,.06-1C36,.88,35.83.72,35.67.67a.57.57,0,0,0-.56.1,1.7,1.7,0,0,0-.39.51,13,13,0,0,0-.81,1.92,17.6,17.6,0,0,0-.6,2.13c-.17.87-.12,1.46.18,1.78a1,1,0,0,0,.87.27h0a1.89,1.89,0,0,0,1.31-1A1,1,0,0,0,36.1,7a.69.69,0,0,0,.6.07L36.89,7a2.49,2.49,0,0,0,.77-.76,4.25,4.25,0,0,0,.27-.46,1.55,1.55,0,0,0,.65-.27A1.84,1.84,0,0,0,39,5.06c0,.35,0,.62,0,.63a.3.3,0,0,0,.27.29.28.28,0,0,0,.13,0,.34.34,0,0,0,.2-.22C40,4.09,40.36,3.19,40.76,3A.44.44,0,0,1,41,3a.62.62,0,0,1,.09.24,3.58,3.58,0,0,1,0,.58,5.3,5.3,0,0,0,0,.59.63.63,0,0,0,.31.54.9.9,0,0,0,.88-.18A1.83,1.83,0,0,0,43,3.61,4.4,4.4,0,0,0,43.13,2.9ZM35.25,1.57a1,1,0,0,1,.22-.3l0,.2a2.17,2.17,0,0,1-.07.68A4.75,4.75,0,0,1,34.1,4.64,15.17,15.17,0,0,1,35.25,1.57Zm1.91,4.32a1.72,1.72,0,0,1-.55.56.24.24,0,0,1-.19,0,.77.77,0,0,1-.19-.57,2.25,2.25,0,0,1,.15-.79,1.5,1.5,0,0,0,.88.62Zm.35-.72a.94.94,0,0,1-.63-.4.58.58,0,0,1,0-.64.72.72,0,0,1,.3-.29h0c.08,0,.18.09.24.22A1.53,1.53,0,0,1,37.51,5.17Z"/><path class="cls-1" d="M42.76,7.78a5.2,5.2,0,0,1-1.25.77c-.31.14,0,.59.27.45a5.3,5.3,0,0,0,1.35-.85C43.39,7.94,43,7.56,42.76,7.78Z"/><path class="cls-1" d="M44,7.22a.27.27,0,0,0,0,.53A.27.27,0,0,0,44,7.22Z"/><path class="cls-1" d="M40.4,8.87c-1.95.8-3.92,1.56-5.91,2.26-.94.33-1.89.71-2.85.95a2.84,2.84,0,0,1-.57.1c-.49,0-.7-.34-.67-.85s.66-1.22,1-1.57a.27.27,0,0,0-.25-.45,40.17,40.17,0,0,0-10.2,3.58c-1.7.79-3.39,1.61-5.11,2.34-.88.37-1.77.72-2.67,1a3.32,3.32,0,0,1-2.85.1,13.64,13.64,0,0,1,3.65-4.17.27.27,0,0,0-.21-.49,29.92,29.92,0,0,0-6.51,2.85c-2.37,1.32-4.73,2.66-7.09,4A.27.27,0,0,0,.4,19l6.81-3.83c1.18-.65,2.36-1.29,3.59-1.83.55-.14.9-.11.91.19a14.47,14.47,0,0,0-2,2.77.27.27,0,0,0,0,.32c1.26,1,2.89.41,4.25-.09,1.88-.7,3.71-1.54,5.52-2.4,2.06-1,4.13-1.94,6.25-2.75L23.3,12.48c2.7-1.16,6.47-2.63,6.83-1.92a1.77,1.77,0,0,0-.26,1.59c.31.66,1.21.61,1.81.47a38,38,0,0,0,4.4-1.5q2.25-.82,4.46-1.74C40.85,9.25,40.71,8.74,40.4,8.87Z"/><path class="cls-1" d="M23.3,12.48c-1.53.66-2.71,1.22-2.71,1.22Z"/><path class="cls-1" d="M9.68,16.43h0c-.25.5.16,1.3.71,1.18a20.25,20.25,0,0,0,3.81-1.19l-2.78.51L10,16.64Z"/><path class="cls-1" d="M42.05,12.44A2.81,2.81,0,0,0,39.68,12a1.45,1.45,0,0,0-.36.08l-.18,0a3.35,3.35,0,0,0-1.86.73,4.85,4.85,0,0,1-3.45,1.32c-1.27.05-2.53-.18-3.8-.19a6.42,6.42,0,0,1-2-.18c-2-.7-2.4-3.54-4.14-4.8A6.33,6.33,0,0,0,21.43,8a3.82,3.82,0,0,0-2.17,0,3.88,3.88,0,0,0-1.15.83,10.82,10.82,0,0,0-2.25,2.53c-1.63,2.88-.4,6.65-1.74,9.67a11.73,11.73,0,0,1-1.95,2.8,8,8,0,0,1-1.34,1.33c-2,1.4-4.85.88-6.83,2.22a3.35,3.35,0,0,0-1.44,1c-.74.72-.59,1.69.06,2.6a6.13,6.13,0,0,0,3,1.93,23.22,23.22,0,0,0,3.09.88,3.68,3.68,0,0,0-.63,1A3.78,3.78,0,0,0,8.27,38,5.67,5.67,0,0,0,9.4,39.5a6.22,6.22,0,0,1-.26-3A7.75,7.75,0,0,1,10,34.27a4.91,4.91,0,0,0,.72-2.14c-.48.4-1,.78-1.46,1.2a26,26,0,0,1-3.57-.76,5.6,5.6,0,0,1-2.87-1.64,1.59,1.59,0,0,1,0-2.34,3.81,3.81,0,0,1,1.56-1,8.29,8.29,0,0,1,3.47-.21c.67.05,1.35.08,2,.11a18.83,18.83,0,0,0,3.75-.35,10.17,10.17,0,0,1-2.44,4.55l-.37.34a3.6,3.6,0,0,1-.5,1.85,12.21,12.21,0,0,0-.94,2.24,6.31,6.31,0,0,0,.26,3.6,10.28,10.28,0,0,0,.81.67,5.36,5.36,0,0,0,1.43.82l.25.08A10.38,10.38,0,0,1,13,38.14a27,27,0,0,1,1.79-3.36,24.41,24.41,0,0,0,2.58-5.16,9.69,9.69,0,0,0,.45-3.8l.13,0a9.69,9.69,0,0,1-.49,4c-1,3-3,5.38-4.24,8.22a10.22,10.22,0,0,0-.93,3.33,5.3,5.3,0,0,0,1.06.13,3.85,3.85,0,0,1,.62-2.09,13.92,13.92,0,0,1,2.52-3.1A7.67,7.67,0,0,0,18.35,33a11.23,11.23,0,0,0,.6-4.26,15.59,15.59,0,0,0-.58-3.09l.13,0a15.11,15.11,0,0,1,.6,3.34,11,11,0,0,1-.59,4,8.27,8.27,0,0,1-1.54,3c-.45.52-1,1-1.46,1.49a15.26,15.26,0,0,0-1.27,1.72,4.14,4.14,0,0,0-.81,2.35h.76a4.22,4.22,0,0,1,.92-2.9c.63-.85,1.39-1.58,2-2.44a11.91,11.91,0,0,0,1.59-3.36,11,11,0,0,0,.53-4,26.14,26.14,0,0,0-.46-3.28l.13-.06a23.38,23.38,0,0,1,.48,3.72,11.35,11.35,0,0,1-.58,3.75,12.09,12.09,0,0,1-1.55,3.24c-.62.88-1.39,1.63-2,2.49a4.07,4.07,0,0,0-.9,2.82c.67,0,1.35-.06,2-.12l-.26.15a16.81,16.81,0,0,1-2.27,1.07l-.64.27c-1.58-.68-2.62-1-2.62-1L8.48,43.41C11,48.67,18.71,47.55,22.75,49.1a3.27,3.27,0,0,0-.54.9,2.38,2.38,0,0,0,.65-.34,3.15,3.15,0,0,1,.47-.3,4.76,4.76,0,0,1,.49.28,2.47,2.47,0,0,0,.66.3,3.23,3.23,0,0,0-.58-.87c4-1.75,11.76-1,14-6.4l-2.17-1.54s-1.22.49-3,1.4A7.79,7.79,0,0,1,28.4,40.1a3.75,3.75,0,0,0,.58.13q-.23-.37-.42-.75a14.17,14.17,0,0,1-1.31-7.59,10.11,10.11,0,0,0-.42,1.64,9.43,9.43,0,0,0,.76,5.59l-.08-.1-.35-.51a9.8,9.8,0,0,1-.37-1.2,10.36,10.36,0,0,1,.52-6c.37-3.09,1.65-6.5,1.29-9.65l.21-.19a17.7,17.7,0,0,1-.41,5.19c-.3,1.37-.67,2.72-.88,4.1.14-.35.3-.7.47-1.05a17.2,17.2,0,0,0,1.37-4c.3-1.44,0-3.36.05-4.81l-.1.06c.55-.52,1.09-1.06,1.63-1.59.07-.12.15-.23.22-.34a1,1,0,0,1,.51-.4,34.29,34.29,0,0,1,5.61-4.87,6.93,6.93,0,0,1,2.22-1,2.86,2.86,0,0,1,2.3.38c1.08.81.92,2.41.5,3.7a17.8,17.8,0,0,1-7.58,9.35A33.61,33.61,0,0,1,31.4,28a4.93,4.93,0,0,1-.84-1.24,3.75,3.75,0,0,1-.2-.65c-.23,1.17-.51,2.33-.67,3.51,0,.21-.06.43-.08.64a5.43,5.43,0,0,0,2,2.58c1.32,1,3,2.05,3.3,3.84a2.78,2.78,0,0,1-.46,2.09,4.24,4.24,0,0,0,.92-.67,4.67,4.67,0,0,0,1.08-1.9,4.64,4.64,0,0,0-.78-2A4.51,4.51,0,0,0,34.64,33c-.44-.33-1-.54-1.41-.86A3.84,3.84,0,0,1,31.59,30a4.64,4.64,0,0,1-.05-1.82l.12.13A3.89,3.89,0,0,0,32,30.68a4.07,4.07,0,0,0,1.09,1.21c.46.36,1,.59,1.47.91A4.89,4.89,0,0,1,36.31,35a5,5,0,0,1,.26.88c0-.11.06-.22.08-.33a4.49,4.49,0,0,0,.16-1.26,3.73,3.73,0,0,0-1-2.27,17.93,17.93,0,0,0-1.91-1.68A23.1,23.1,0,0,1,32,28.55a33,33,0,0,0,3.25-1.78,18,18,0,0,0,7.47-10.19C43.07,15.15,43.18,13.38,42.05,12.44ZM15,19.66l.11-.55v0a19.12,19.12,0,0,0,7.44-1.56,9,9,0,0,0,4.39-3.82,1.33,1.33,0,0,0,.19.14,1.52,1.52,0,0,0,.68.25A9.2,9.2,0,0,1,24.92,18a14,14,0,0,1-4.24,2.3c-1.95.68-4.06,1.08-5.93.16A5.25,5.25,0,0,0,15,19.66Zm2.22,7.82a10.49,10.49,0,0,1-3.45,4.68,14.33,14.33,0,0,0-1.24,1.1,6.86,6.86,0,0,0-1,1.36,9.3,9.3,0,0,0-1,2.94h0a4,4,0,0,0,.17,1.34h0a3.31,3.31,0,0,0,1.58,1.2c.08,0,0,.16,0,.13a3.32,3.32,0,0,1-1.76-1.43,3.11,3.11,0,0,1-.27-1.9,9.91,9.91,0,0,1,1.87-4c.4-.57.83-1.13,1.28-1.67a11,11,0,0,0,1-1.17,13.59,13.59,0,0,0,1.47-3.54l.15-.05a14.27,14.27,0,0,1-1.35,3.4,7,7,0,0,1-.78,1c-.46.54-.91,1.09-1.33,1.66a10.85,10.85,0,0,0-2.09,4.08,3.38,3.38,0,0,0,0,1.73,5.53,5.53,0,0,1,0-.71.08.08,0,0,1,0-.05,9.35,9.35,0,0,1,1.13-3.16,8.57,8.57,0,0,1,2-2.29,13.68,13.68,0,0,0,2.23-2.27A7.25,7.25,0,0,0,17.29,26l.15-.05A5.93,5.93,0,0,1,17.17,27.48Zm12,14a8.09,8.09,0,0,0,2.73,1.38,47.61,47.61,0,0,0-8,5.12,11.25,11.25,0,0,1-1.3,0,48.09,48.09,0,0,0-8.79-4.95,22.37,22.37,0,0,0,2.23-1,6.24,6.24,0,0,0,3.2-3.62,34.12,34.12,0,0,0,1.25-5.58,10.56,10.56,0,0,0,0-4c.19.23.39.46.59.67.77.82,1.71,1.84,2.82,1.73a9.44,9.44,0,0,0,1.7,5.87A14.2,14.2,0,0,0,29.19,41.52Zm-4.58-8.21.15-.47c.31-.93.71-1.83,1.09-2.73l.29-.36c-.07.17-.14.35-.22.52a27.6,27.6,0,0,0-1.25,3.32Zm3.32-11a1.54,1.54,0,0,0,.26-.25,13.62,13.62,0,0,1-1.4,6c-.55,1.06-1.4,2.63-2.68,2.9s-2.53-1.33-3.26-2.19a7.92,7.92,0,0,1-1-1.49c-.21-.42-.78-1.57-.56-2.05,0-.1.18-.17.37-.23a1,1,0,0,1,.35,0l.13,0a15.22,15.22,0,0,0,3.13-.62A15.08,15.08,0,0,0,27,22.91l.42-.23.15-.11Z"/><path class="cls-1" d="M25.22,28.17a1.13,1.13,0,0,1-.31-.24.73.73,0,0,0-.32-.23.65.65,0,0,0-.24,0,.71.71,0,0,0-.35.13.08.08,0,0,1,0,0c-.05,0-.11,0-.15-.05a.68.68,0,0,0-.37-.06.9.9,0,0,0-.36.08,1.1,1.1,0,0,0-.23.2l-.2.17h.17l-.06,0h-.15l0,0h-.54s0,0,0,0h0l0,0a.29.29,0,0,0,.14.08,2.65,2.65,0,0,1,.39.26c.18.15.34.33.52.48a1,1,0,0,0,.65.25,1.07,1.07,0,0,0,.3-.06,1.46,1.46,0,0,0,.39-.16,3.27,3.27,0,0,0,.47-.51,1.37,1.37,0,0,1,.29-.24l.17-.07h-.33l-.06-.06h.26Z"/><path class="cls-1" d="M25.6,28.22h-.26A.57.57,0,0,0,25.6,28.22Z"/><path class="cls-1" d="M25.47,28.28h.13A.29.29,0,0,0,25.47,28.28Z"/><path class="cls-1" d="M28.2,29.61c-.27.58-.53,1.16-.76,1.75l0,.21a15.74,15.74,0,0,0,.12,4.28,12.31,12.31,0,0,0,1.64,4.4,5.58,5.58,0,0,0,1.35-.06,12.94,12.94,0,0,0,2.54-.81c.31-.13.62-.25.92-.39a3.61,3.61,0,0,0-.17-.65c-.45-1.26-1.58-1.77-2.61-2.47a3.39,3.39,0,0,1-1.13-1.16,5.5,5.5,0,0,1-.58-1.8,10.53,10.53,0,0,1,0-2.69v0a.06.06,0,0,1,0-.06c.17-1.49.55-3,.83-4.45-.14-1.12.11-2.33-.08-3.47a9.69,9.69,0,0,0-.39-1.61c-.11.07-.18.2-.28.27-.05.76.06,2,.09,2.76A8.9,8.9,0,0,1,29.45,26,16.42,16.42,0,0,1,28.2,29.61Z"/><path class="cls-1" d="M34.25,38.86a3.37,3.37,0,0,0,.42-.74c.67-1.73-.6-3.26-1.88-4.28-.66-.53-1.38-1-2-1.57a5,5,0,0,1-1.21-1.74A8.23,8.23,0,0,0,29.9,34a3.44,3.44,0,0,0,1.22,1.64c.53.37,1.12.66,1.63,1.05a3.58,3.58,0,0,1,1.36,2.22Z"/></g></g></svg>